<svg version="1.1" viewBox="0 0 54.47 36.201" xmlns="http://www.w3.org/2000/svg"><path transform="translate(0 -2)" d="M8.0351,30.899v-6.3108a40.99079,40.99079,0,0,0-7.9367,3.8015c-.0346.0219-.0641.0392-.0984.0604v5.038c.0249-.0133.0422-.0235.0422-.0235A28.83687,28.83687,0,0,1,8.0351,30.899" fill="#8d8d92"/><path transform="translate(0 -2)" d="M18.904,30.08121c.0292.0008.0558.0022.0844.0031v-7.5526c-.1253.0413-.1973.0637-.1973.0637a30.06137,30.06137,0,0,0-9.1629,1.4712v6.556a50.59328,50.59328,0,0,1,9.2758-.5414" fill="#c03021"/><path transform="translate(0 -2)" d="M.0986,27.16351a29.75257,29.75257,0,0,1,7.9365-4.4107v-7.2615c-.4017-.5715-6.1744.1686-8.0351,7.6969v4.0561c.0612-.0505.0986-.0808.0986-.0808" fill="#8d8d92"/><path transform="translate(0 -2)" d="m0 34.494v3.7071h8.0351v-5.8272a35.223 35.223 0 0 0-8.0351 2.1201" fill="#8d8d92"/><path transform="translate(0 -2)" d="M18.904,32.64711a29.29838,29.29838,0,0,0-9.2758-.4598v6.0134h9.3602v-5.5692c-.0544.0096-.0844.0156-.0844.0156" fill="#c03021"/><g fill="#4d4d4e"><path transform="translate(0 -2)" d="M27.7812,34.14921q-.39495,0-.8538-.0363a5.17491,5.17491,0,0,1-.9249-.1613,4.26336,4.26336,0,0,1-.9176-.3657,3.33588,3.33588,0,0,1-.8303-.6366,3.20712,3.20712,0,0,1-.6171-.8927,4.92148,4.92148,0,0,1-.3319-.9802,6.53754,6.53754,0,0,1-.1423-.9881c-.0213-.3266-.0315-.6307-.0315-.9142q0-.54165.0392-1.0902a7.77689,7.77689,0,0,1,.1508-1.0681,4.57967,4.57967,0,0,1,.3242-.9802,3.306,3.306,0,0,1,.561-.8416,3.16774,3.16774,0,0,1,.9176-.7093,5.07613,5.07613,0,0,1,1.0117-.3883,5.22629,5.22629,0,0,1,.949-.1607q.44355-.0294.7436-.0292H32.273v1.5363H28.8094q-.4593,0-.8853.0219a3.762,3.762,0,0,0-.7994.1244,2.61281,2.61281,0,0,0-.6794.2931,1.95836,1.95836,0,0,0-.5457.5117,3.01486,3.01486,0,0,0-.4351.9731,6.7611,6.7611,0,0,0-.1823,1.7779,8.8602,8.8602,0,0,0,.0479.9879,4.82229,4.82229,0,0,0,.1267.7095,2.63437,2.63437,0,0,0,.1738.4827,2.73609,2.73609,0,0,0,.1737.3076,1.99607,1.99607,0,0,0,1.1705.79,6.99784,6.99784,0,0,0,1.724.1905h3.7477v1.5361Z"/><path transform="translate(0 -2)" d="M38.2028,34.14921q-.395,0-.8538-.0363a5.17182,5.17182,0,0,1-.9249-.1613,4.26132,4.26132,0,0,1-.9176-.3657,3.33952,3.33952,0,0,1-.8303-.6366,3.21347,3.21347,0,0,1-.6171-.8927,4.92148,4.92148,0,0,1-.3319-.9802,6.52488,6.52488,0,0,1-.1423-.9881c-.0213-.3266-.0315-.6307-.0315-.9142q0-.54165.0391-1.0902a7.85458,7.85458,0,0,1,.1508-1.0681,4.58542,4.58542,0,0,1,.3243-.9802,3.31121,3.31121,0,0,1,.561-.8416,3.16774,3.16774,0,0,1,.9176-.7093,5.07078,5.07078,0,0,1,1.0119-.3883,5.22,5.22,0,0,1,.9488-.1607q.44355-.0294.7435-.0292h4.4442v1.5363H39.2309q-.45915,0-.8852.0219a3.761,3.761,0,0,0-.7994.1244,2.615,2.615,0,0,0-.6795.2931,1.958,1.958,0,0,0-.5456.5117,3.01691,3.01691,0,0,0-.4352.9731,6.76179,6.76179,0,0,0-.1822,1.7779,8.90871,8.90871,0,0,0,.0479.9879,4.84891,4.84891,0,0,0,.1267.7095,2.627,2.627,0,0,0,.1738.4827,2.73609,2.73609,0,0,0,.1737.3076,1.99615,1.99615,0,0,0,1.1704.79,6.99868,6.99868,0,0,0,1.7241.1905h3.7477v1.5361Z"/><rect x="44.292" y="21.906" width="2.0877" height="10.243"/><path transform="translate(0 -2)" d="M51.6302,34.14921,47.0755,30.213a1.87746,1.87746,0,0,1-.5533-.7095,1.73464,1.73464,0,0,1-.1426-.6217,1.39294,1.39294,0,0,1,.1585-.6151,1.75754,1.75754,0,0,1,.3798-.5264l4.1902-3.8338h2.5781L48.9101,28.106c-.1264.1077-.2455.2171-.356.3291a.58959.58959,0,0,0-.1658.4317.76573.76573,0,0,0,.2137.5562q.213.2193.4348.4096l5.2342,4.3166Z"/></g><g fill="#979797"><path transform="translate(0 -2)" d="M23.1318,37.80051v-1.7096a.5799.5799,0,0,1,.0102-.11.197.197,0,0,1,.0607-.1012.28376.28376,0,0,1,.0848-.0541.28794.28794,0,0,1,.1199-.023h1.3875v.2994H23.6772c-.0218,0-.0465.0014-.074.0031a.08975.08975,0,0,0-.0626.0258.074.074,0,0,0-.0159.0456c-.0014.019-.0017.038-.0017.057v1.567Z"/><path transform="translate(0 -2)" d="M24.9429,37.80051v-1.6983a.733.733,0,0,1,.0088-.1142.19408.19408,0,0,1,.0623-.1083.23647.23647,0,0,1,.1157-.0629.564.564,0,0,1,.1185-.0142h.987c.0278,0,.059.0006.0936.0012a.63543.63543,0,0,1,.1065.013.51364.51364,0,0,1,.1097.036.348.348,0,0,1,.1024.07.36174.36174,0,0,1,.0844.1123.63793.63793,0,0,1,.0474.1357.86642.86642,0,0,1,.0207.1426c.0034.0476.0048.0924.0048.1341q0,.06-.0062.1358a.97852.97852,0,0,1-.0236.1514.63405.63405,0,0,1-.0535.1437.34821.34821,0,0,1-.0978.117.44024.44024,0,0,1-.1423.0715.592.592,0,0,1-.1747.0255h-.9722v.7081Zm1.1353-1.0077a1.173,1.173,0,0,0,.1349-.0083.20141.20141,0,0,0,.1573-.1269.52638.52638,0,0,0,.0207-.0729.47327.47327,0,0,0,.0088-.0743c.0011-.0246.0014-.0467.0014-.0654a1.03131,1.03131,0,0,0-.0116-.146.21811.21811,0,0,0-.0624-.1282.21168.21168,0,0,0-.1216-.0586.90127.90127,0,0,0-.1216-.01h-.6312c-.0139,0-.0287.0006-.0446.0017a.07657.07657,0,0,0-.0476.0239.074.074,0,0,0-.0235.0442.41424.41424,0,0,0-.0028.0502v.5706Z"/><polygon points="27.498 35.801 27.75 35.358 26.864 33.803 27.297 33.803 27.952 35.012 28.583 33.803 29.01 33.803 27.922 35.801"/><path transform="translate(0 -2)" d="M29.6413,36.10221c-.0156,0-.032.0006-.049.0017a.06667.06667,0,0,0-.0459.0239.07676.07676,0,0,0-.0204.0416.22835.22835,0,0,0-.0063.0528v1.5783h-.3909v-1.7266a.37942.37942,0,0,1,.0131-.1029.22018.22018,0,0,1,.0637-.0972.2307.2307,0,0,1,.1097-.061.66961.66961,0,0,1,.1245-.0102h1.2271a.71611.71611,0,0,1,.1216.0102.21357.21357,0,0,1,.1125.061.21041.21041,0,0,1,.061.0972.41233.41233,0,0,1,.013.1029v1.7266h-.3909v-1.5783c0-.0151-.0005-.0315-.0017-.0485a.06735.06735,0,0,0-.0224-.0459.06666.06666,0,0,0-.047-.0239c-.0182-.0011-.0338-.0017-.0479-.0017Z"/><path transform="translate(0 -2)" d="M31.8438,36.10221c-.0158,0-.0323.0006-.049.0017a.06667.06667,0,0,0-.0459.0239.0821.0821,0,0,0-.0207.0416.24508.24508,0,0,0-.006.0528v1.5783h-.3911v-1.7266a.37942.37942,0,0,1,.0133-.1029.22133.22133,0,0,1,.0635-.0972.23115.23115,0,0,1,.1097-.061.67189.67189,0,0,1,.1247-.0102h1.2271a.71611.71611,0,0,1,.1216.0102.21311.21311,0,0,1,.1126.061.20779.20779,0,0,1,.0606.0972.39928.39928,0,0,1,.0133.1029v1.7266h-.3911v-1.5783c0-.0151-.0003-.0315-.0015-.0485a.08143.08143,0,0,0-.0694-.0698c-.0179-.0011-.0337-.0017-.0476-.0017Z"/><path transform="translate(0 -2)" d="M34.0492,36.00531a.414.414,0,0,1,.129-.1757.46871.46871,0,0,1,.4209,0,.40125.40125,0,0,1,.1318.1757l.7827,1.7952h-.4119l-.2134-.5054h-.999l-.2109.5054h-.4118Zm-.0592,1.0216h.7973l-.3379-.8133c-.0059-.015-.0136-.0328-.0235-.053-.0099-.0198-.0221-.0297-.0357-.0297q-.02085,0-.0357.0297c-.0099.0202-.0179.038-.0235.053Z"/><path transform="translate(0 -2)" d="M36.2931,35.80261h.3915v1.9979h-.3915Zm1.491,1.9979-.8535-.7679a.35945.35945,0,0,1-.1037-.1384.34541.34541,0,0,1-.0267-.1216.2798.2798,0,0,1,.0298-.1196.33784.33784,0,0,1,.0709-.1026l.7854-.7478h.4833l-.8954.819c-.0236.0209-.0457.0425-.0666.0643a.11774.11774,0,0,0-.0309.0842.15372.15372,0,0,0,.0399.1086c.0267.0283.0539.0547.0814.0796l.9811.8422Z"/><path transform="translate(0 -2)" d="M39.5759,35.78281a1.41967,1.41967,0,0,1,.2197.0224,1.11327,1.11327,0,0,1,.2163.0629.62256.62256,0,0,1,.191.123.56367.56367,0,0,1,.1276.1741,1.04537,1.04537,0,0,1,.0728.2083,1.28868,1.28868,0,0,1,.0309.2197c.004.074.006.1437.006.2081,0,.0669-.0026.1369-.0074.2097a1.5096,1.5096,0,0,1-.0309.2189.99091.99091,0,0,1-.0714.208.5624.5624,0,0,1-.1276.1738.62072.62072,0,0,1-.191.123,1.09215,1.09215,0,0,1-.2163.0627,1.47966,1.47966,0,0,1-.2208.0229q-.1098.003-.1987.0029c-.0613,0-.1282-.0009-.2002-.0029a1.47228,1.47228,0,0,1-.2194-.0229,1.08734,1.08734,0,0,1-.2162-.0627.61881.61881,0,0,1-.1911-.123.59658.59658,0,0,1-.1381-.1882.97735.97735,0,0,1-.0711-.2155,1.37113,1.37113,0,0,1-.0266-.2154c-.0032-.0703-.0046-.1341-.0046-.1913q0-.10245.006-.2126a1.33069,1.33069,0,0,1,.0297-.2166.9355.9355,0,0,1,.0712-.2058.55169.55169,0,0,1,.1335-.1752.62064.62064,0,0,1,.1911-.123,1.1176,1.1176,0,0,1,.2148-.0629,1.38851,1.38851,0,0,1,.218-.0224c.072-.002.1398-.0031.203-.0031.0609,0,.1278.0011.1998.0031m-.8535,1.2314a1.16486,1.16486,0,0,0,.0281.1567.59448.59448,0,0,0,.0402.1114.36318.36318,0,0,0,.0488.0757.33649.33649,0,0,0,.104.0899.52538.52538,0,0,0,.127.0498.75624.75624,0,0,0,.1454.0216c.0513.0028.1038.004.157.004s.1055-.0012.156-.004a.77157.77157,0,0,0,.1448-.0216.51818.51818,0,0,0,.129-.0498.375.375,0,0,0,.1068-.0899.35457.35457,0,0,0,.0488-.0771.61732.61732,0,0,0,.04-.1111,1.08675,1.08675,0,0,0,.0286-.1574,1.9205,1.9205,0,0,0,.0102-.2111,2.05422,2.05422,0,0,0-.0102-.2209,1.08244,1.08244,0,0,0-.0286-.1584.48067.48067,0,0,0-.0414-.1086.43561.43561,0,0,0-.0474-.0711.39678.39678,0,0,0-.2341-.1358,1.61359,1.61359,0,0,0-.3025-.0269,1.58678,1.58678,0,0,0-.3024.0269.39509.39509,0,0,0-.231.1358.54046.54046,0,0,0-.0933.2012,1.43577,1.43577,0,0,0-.0343.3578A1.84589,1.84589,0,0,0,38.7224,37.01421Z"/><path transform="translate(0 -2)" d="M42.3255,37.58331c-.0156.038-.0312.0718-.0462.1015a.269.269,0,0,1-.0544.0754.208.208,0,0,1-.0802.0474.37954.37954,0,0,1-.1157.0156.323.323,0,0,1-.1227-.0202.244.244,0,0,1-.082-.0527.27526.27526,0,0,1-.0532-.0757.98287.98287,0,0,1-.0386-.0913l-.5306-1.3325a.21745.21745,0,0,0-.0207-.0417c-.01-.0159-.0196-.0241-.0295-.0241-.0159,0-.0255.0091-.0284.0272l-.0042.0326.0088,1.5554h-.3912v-1.758a.22749.22749,0,0,1,.0442-.1497.29313.29313,0,0,1,.1009-.0785.3392.3392,0,0,1,.1111-.0301c.0366-.0028.0627-.004.0786-.004a.4834.4834,0,0,1,.1496.0199.27958.27958,0,0,1,.1009.0555.32868.32868,0,0,1,.0667.0828.873.873,0,0,1,.0476.0987l.5366,1.3325a.52639.52639,0,0,0,.028.0528c.0088.0144.0182.0215.0281.0215s.0193-.0071.0284-.0215c.0087-.0145.0178-.0318.028-.0528l.5363-1.3325a.49849.49849,0,0,1,.0729-.1355.30631.30631,0,0,1,.0876-.0774.29519.29519,0,0,1,.0975-.0355.64781.64781,0,0,1,.1069-.0085.42712.42712,0,0,1,.24.0627.2222.2222,0,0,1,.095.1996v1.758h-.3912l.0116-1.5554c0-.0263-.0045-.0431-.0133-.0499a.04131.04131,0,0,0-.0221-.0099c-.0099,0-.0198.0082-.0297.0241a.2062.2062,0,0,0-.0207.0417Z"/><path transform="translate(0 -2)" d="M44.1899,36.10221c-.0156,0-.0321.0006-.0488.0017a.06789.06789,0,0,0-.0462.0239.08035.08035,0,0,0-.0204.0416.24508.24508,0,0,0-.006.0528v1.5783h-.3911v-1.7266a.39159.39159,0,0,1,.013-.1029.22048.22048,0,0,1,.0638-.0972.23115.23115,0,0,1,.1097-.061.67189.67189,0,0,1,.1247-.0102h1.2271a.71.71,0,0,1,.1213.0102.215.215,0,0,1,.1129.061.21022.21022,0,0,1,.0606.0972.39928.39928,0,0,1,.0133.1029v1.7266h-.3911v-1.5783c0-.0151-.0003-.0315-.0015-.0485a.069.069,0,0,0-.0223-.0459.06805.06805,0,0,0-.0474-.0239c-.0181-.0011-.0337-.0017-.0476-.0017Z"/><path transform="translate(0 -2)" d="M46.3955,36.00531a.41371.41371,0,0,1,.1287-.1757.46934.46934,0,0,1,.4212,0,.40351.40351,0,0,1,.1318.1757l.7824,1.7952h-.4119l-.2134-.5054h-.999l-.2106.5054h-.4118Zm-.0595,1.0216h.7976l-.3379-.8133c-.0059-.015-.0141-.0328-.024-.053-.0097-.0198-.0216-.0297-.0352-.0297-.0142,0-.0258.0099-.0357.0297-.0099.0202-.0179.038-.0238.053Z"/><polygon points="49.81 35.801 49.419 35.801 49.419 34.922 48.34 34.922 48.34 35.801 47.949 35.801 47.949 33.803 48.34 33.803 48.34 34.622 49.419 34.622 49.419 33.803 49.81 33.803"/><path transform="translate(0 -2)" d="M51.7459,37.80051l.0147-1.5183a.22551.22551,0,0,0-.0042-.0442.02388.02388,0,0,0-.0255-.0215c-.0117,0-.0236.0096-.0355.0283-.0119.0193-.0258.0403-.0414.063l-.8537,1.3269a.73362.73362,0,0,1-.046.0671.29567.29567,0,0,1-.0609.0598.28211.28211,0,0,1-.0887.0443.44728.44728,0,0,1-.1336.0173.34008.34008,0,0,1-.1748-.0375.2297.2297,0,0,1-.0905-.091.30054.30054,0,0,1-.034-.1128.99994.99994,0,0,1-.0057-.1015v-1.6778h.3909l-.0119,1.4896a.54387.54387,0,0,0,.0034.0627.02888.02888,0,0,0,.0326.0289.03458.03458,0,0,0,.0295-.0201l.0267-.0428.8376-1.3184a.52645.52645,0,0,1,.1619-.1769.36136.36136,0,0,1,.1856-.0459.32967.32967,0,0,1,.1812.0428.27068.27068,0,0,1,.0949.1.31811.31811,0,0,1,.0357.1182c.004.0411.006.074.006.0984v1.6614Z"/><path transform="translate(0 -2)" d="M54.076,37.80051l.0147-1.5183a.23086.23086,0,0,0-.0042-.0445.02414.02414,0,0,0-.0256-.0212c-.0119,0-.0235.0096-.0354.0286s-.0258.04-.0417.0627l-.8535,1.3271c-.0139.0224-.0292.0451-.0459.0669a.31856.31856,0,0,1-.0609.0601.29124.29124,0,0,1-.0888.044.44691.44691,0,0,1-.1335.0175.34312.34312,0,0,1-.1749-.0374.2287.2287,0,0,1-.0904-.0913.30054.30054,0,0,1-.034-.1128.92663.92663,0,0,1-.006-.1012v-1.6781h.3912l-.0119,1.4896a.60781.60781,0,0,0,.0031.063.02861.02861,0,0,0,.0326.0283.03419.03419,0,0,0,.0298-.0201l.0266-.0425.8377-1.3184a.52317.52317,0,0,1,.1616-.1769.36512.36512,0,0,1,.1856-.0459.33157.33157,0,0,1,.1814.0428.27493.27493,0,0,1,.095.1.32936.32936,0,0,1,.0357.1185c.0037.0408.0057.0737.0057.0981v1.6614Zm-.9014-2.4517a.2584.2584,0,0,0,.0343.0697.26843.26843,0,0,0,.049.0559.23814.23814,0,0,0,.108.0501.64249.64249,0,0,0,.1083.01.66053.66053,0,0,0,.1111-.01.24158.24158,0,0,0,.1083-.0501.27029.27029,0,0,0,.0487-.0559.26657.26657,0,0,0,.034-.0697h.2818a.79726.79726,0,0,1-.0743.1599.4505.4505,0,0,1-.3095.2168,1.07684,1.07684,0,0,1-.2001.0199.88815.88815,0,0,1-.2135-.0241.486.486,0,0,1-.1661-.0726.44657.44657,0,0,1-.1273-.14.77772.77772,0,0,1-.0739-.1599Z"/></g><path transform="translate(0 -2)" d="m18.989 2a10.214 10.214 0 0 0-9.3608 7.6125v4.242a14.596 14.596 0 0 1 9.3608-3.9469z" fill="#c03021"/><path transform="translate(0 -2)" d="M9.6282,22.16461a43.071,43.071,0,0,1,9.1627-2.0639c.0683-.008.1315-.0148.1978-.0224v-7.5767c-5.3937.3378-6.3635,1.5222-9.3605,3.3831Z" fill="#c03021"/></svg>
