<svg version="1.1" viewBox="0 0 40 40" xmlns="http://www.w3.org/2000/svg"><g transform="translate(4,4)" fill="#8d8d92"><path d="m14.617 25.545v-5.5784a38.856 36.234 0 0 0-7.5233 3.3603c-0.032798 0.01936-0.060762 0.03465-0.093275 0.05339v4.4533c0.023603-0.01176 0.040002-0.02077 0.040002-0.02077a27.335 25.49 0 0 1 7.5766-2.2679"/><path d="m7.0935 22.244a28.203 26.3 0 0 1 7.5231-3.8988v-6.4188c-0.38078-0.50518-5.8528 0.14903-7.6166 6.8037v3.5854c0.058013-0.04464 0.093465-0.07142 0.093465-0.07142"/><path d="m7 28.723v3.2769h7.6166v-5.151a33.388 31.135 0 0 0-7.6166 1.8741"/></g><g transform="translate(4,4)" fill="#c03021"><path d="m24.919 24.822c0.02768 7.07e-4 0.0529 0.0019 0.08 0.0027v-6.6761c-0.11877 0.03651-0.18702 0.05631-0.18702 0.05631a28.495 26.572 0 0 0-8.6857 1.3005v5.7952a47.958 44.722 0 0 1 8.7927-0.47857"/><path d="m24.919 27.09a27.772 25.898 0 0 0-8.7927-0.40644v5.3156h8.8727v-4.9229c-0.05157 0.0085-0.08 0.01379-0.08 0.01379"/><path d="m25 0a9.682 9.0287 0 0 0-8.8733 6.7291v3.7497a13.836 12.902 0 0 1 8.8733-3.4889z"/><path d="m16.127 17.825a40.828 38.073 0 0 1 8.6855-1.8244c0.06474-0.0071 0.12465-0.01308 0.1875-0.0198v-6.6974c-5.1128 0.2986-6.0321 1.3456-8.873 2.9905z"/></g></svg>
